HIERARCHY
ROOT RootJoint
{
    OFFSET   0.000000   0.000000   0.000000
    CHANNELS 6 Xposition Yposition Zposition Xrotation Yrotation Zrotation
    JOINT pelvis_lowerback
    {
        OFFSET   0.000000   0.093605   0.000000
        CHANNELS 3 Xrotation Yrotation Zrotation
        JOINT lowerback_torso
        {
            OFFSET   0.000000   0.100000   0.000000
            CHANNELS 3 Xrotation Yrotation Zrotation
            JOINT torso_head
            {
                OFFSET   0.000000   0.282350   0.000000
                CHANNELS 3 Xrotation Yrotation Zrotation
                End Site
                {
                    OFFSET   0.000000   0.192650   0.000000
                }
            }
            JOINT rTorso_Clavicle
            {
                OFFSET  -0.001000   0.157500   0.000000
                CHANNELS 3 Xrotation Yrotation Zrotation
                JOINT rShoulder
                {
                    OFFSET  -0.117647   0.000000   0.000000
                    CHANNELS 3 Xrotation Yrotation Zrotation
                    JOINT rElbow
                    {
                        OFFSET  -0.245000   0.000000   0.000000
                        CHANNELS 3 Xrotation Yrotation Zrotation
                        JOINT rWrist
                        {
                            OFFSET  -0.240000   0.000000   0.000000
                            CHANNELS 3 Xrotation Yrotation Zrotation
                            End Site
                            {
                                OFFSET  -0.116353  -0.002500   0.000000
                            }
                        }
                    }
                }
            }
            JOINT lTorso_Clavicle
            {
                OFFSET   0.001000   0.157500   0.000000
                CHANNELS 3 Xrotation Yrotation Zrotation
                JOINT lShoulder
                {
                    OFFSET   0.117647   0.000000   0.000000
                    CHANNELS 3 Xrotation Yrotation Zrotation
                    JOINT lElbow
                    {
                        OFFSET   0.245000   0.000000   0.000000
                        CHANNELS 3 Xrotation Yrotation Zrotation
                        JOINT lWrist
                        {
                            OFFSET   0.240000   0.000000   0.000000
                            CHANNELS 3 Xrotation Yrotation Zrotation
                            End Site
                            {
                                OFFSET   0.116353  -0.002500   0.000000
                            }
                        }
                    }
                }
            }
        }
    }
    JOINT rHip
    {
        OFFSET  -0.100000  -0.051395   0.000000
        CHANNELS 3 Xrotation Yrotation Zrotation
        JOINT rKnee
        {
            OFFSET   0.000000  -0.410000   0.000000
            CHANNELS 3 Xrotation Yrotation Zrotation
            JOINT rAnkle
            {
                OFFSET   0.000000  -0.390000   0.000000
                CHANNELS 3 Xrotation Yrotation Zrotation
                JOINT rToeJoint
                {
                    OFFSET   0.000000  -0.050000   0.130000
                    CHANNELS 3 Xrotation Yrotation Zrotation
                    End Site
                    {
                        OFFSET  -0.010000   0.002000   0.060000
                    }
                }
            }
        }
    }
    JOINT lHip
    {
        OFFSET   0.100000  -0.051395   0.000000
        CHANNELS 3 Xrotation Yrotation Zrotation
        JOINT lKnee
        {
            OFFSET   0.000000  -0.410000   0.000000
            CHANNELS 3 Xrotation Yrotation Zrotation
            JOINT lAnkle
            {
                OFFSET   0.000000  -0.390000   0.000000
                CHANNELS 3 Xrotation Yrotation Zrotation
                JOINT lToeJoint
                {
                    OFFSET   0.000000  -0.050000   0.130000
                    CHANNELS 3 Xrotation Yrotation Zrotation
                    End Site
                    {
                        OFFSET   0.010000   0.002000   0.060000
                    }
                }
            }
        }
    }
}
MOTION
Frames: 15
Frame Time:   0.008333
 -1.532351   0.905117   5.357245 -104.192122  75.321666 106.331779  11.037217  -3.380961  -2.084690   4.507657  -2.833380  -0.647161   2.252207   0.491566   0.439898   2.926889   0.896770   4.715221  13.946318  12.222251  57.270819  -0.001444  16.285882  -0.000076   6.769764   2.770283   0.013347   0.235131  -6.459336  -4.378645  -0.816273 -15.687838 -46.517443  -0.003439 -23.134717   0.003319   4.861117  -2.460921   4.142314 -10.717647  -1.074487  -5.752198  28.724656   0.001823  -0.001061  -4.703037  -9.303762   4.552591  -3.093246  -0.004601   0.002122  18.904637   0.858984  -4.640277   8.975035   0.000289  -0.001070 -13.807042  -1.039279   7.023074   0.122624  -0.000024  -0.000001
 -1.527023   0.904309   5.357504 -103.932253  75.513546 106.106266  10.883197  -3.405260  -2.092987   4.511078  -2.829918  -0.598636   2.275642   0.642639   0.339725   2.960040   0.861402   4.766487  14.013824  12.272010  57.280351  -0.001278  16.219626  -0.000073   6.734201   2.770410   0.031356   0.129105  -6.644405  -4.287943  -1.177811 -16.113476 -46.508780  -0.003365 -23.560384   0.003901   4.846712  -2.421202   4.162555 -10.998977  -1.084744  -5.771013  26.793197   0.002397   0.001403  -4.558218  -9.200226   4.788914  -2.946316  -0.004426   0.001839  19.195236   0.997374  -4.647842   8.839574   0.000294  -0.000952 -14.109765  -1.105731   6.879607   0.104611  -0.000031  -0.000000
 -1.521719   0.903427   5.357766 -103.607409  75.710514 105.831317  10.740762  -3.421585  -2.109529   4.509093  -2.825334  -0.556871   2.302461   0.787648   0.240425   2.984332   0.838209   4.817938  14.071139  12.322417  57.286919  -0.001132  16.158555  -0.000067   6.702063   2.768038   0.049286   0.004695  -6.841486  -4.199063  -1.539872 -16.532391 -46.502563  -0.003272 -23.973132   0.004341   4.839231  -2.450119   4.189124 -11.287410  -1.096205  -5.798877  24.931547   0.002832   0.003614  -4.424688  -9.102017   5.009627  -2.802389  -0.004241   0.001584  19.479886   1.133953  -4.676224   8.713268   0.000294  -0.000839 -14.417218  -1.160160   6.737496   0.086504  -0.000037  -0.000000
 -1.516371   0.902313   5.358084 -103.329530  75.900887 105.578367  10.606421  -3.447669  -2.105680   4.500969  -2.830528  -0.507310   2.329681   0.923374   0.147748   3.003722   0.819945   4.856581  14.122024  12.371176  57.290894  -0.000996  16.103592  -0.000069   6.671709   2.775061   0.068152  -0.126150  -7.040510  -4.107189  -1.892077 -16.935378 -46.498061  -0.003168 -24.366485   0.004648   4.835373  -2.523805   4.223509 -11.577873  -1.109722  -5.797291  23.184208   0.003015   0.004986  -4.301791  -9.009498   5.215243  -2.675963  -0.003970   0.001381  19.749930   1.275683  -4.674335   8.662469   0.000260  -0.000707 -14.498802  -1.203206   6.657094  -1.585029  -0.000231   0.000184
 -1.510957   0.901291   5.358369 -102.923405  76.090511 105.248851  10.475961  -3.470774  -2.136689   4.490631  -2.837774  -0.477441   2.355510   1.050263   0.059337   3.017201   0.806626   4.908689  14.165106  12.419003  57.294950  -0.000885  16.052091  -0.000077   6.642966   2.779044   0.075195  -0.253418  -7.232962  -4.032276  -2.225598 -17.314346 -46.493688  -0.002961 -24.734186   0.004825   4.833183  -2.607800   4.271956 -11.860756  -1.113850  -5.840224  21.544436   0.003127   0.006367  -4.187329  -8.922231   5.406552  -2.557558  -0.003683   0.001174  20.052660   1.396131  -4.732894   8.551548   0.000263  -0.000615 -14.886943  -1.241853   6.503550  -1.271722   0.000051   0.000162
 -1.505489   0.900312   5.358667 -102.528013  76.279474 104.933176  10.348526  -3.501419  -2.160290   4.475363  -2.852132  -0.450397   2.379094   1.168333  -0.024171   3.028182   0.794909   4.958211  14.203472  12.464896  57.300260  -0.000789  16.005158  -0.000086   6.615206   2.788543   0.082319  -0.375019  -7.419408  -3.967305  -2.541699 -17.672921 -46.496975  -0.002702 -25.079776   0.004914   4.831931  -2.700486   4.315649 -12.136541  -1.117950  -5.877525  20.011776   0.003172   0.007239  -4.081110  -8.840453   5.584626  -2.450643  -0.003377   0.000999  20.348828   1.507959  -4.794459   8.448351   0.000262  -0.000536 -15.220149  -1.277752   6.363473  -1.095915   0.000154   0.000126
 -1.499965   0.899358   5.358992 -102.156149  76.466741 104.639463  10.224701  -3.537320  -2.176602   4.457006  -2.872193  -0.421971   2.400642   1.278263  -0.101708   3.038190   0.783662   5.004616  14.238868  12.508023  57.305896  -0.000707  15.961831  -0.000093   6.588447   2.801533   0.090078  -0.490560  -7.598699  -3.909621  -2.840397 -18.011314 -46.505477  -0.002425 -25.404219   0.004923   4.831586  -2.799644   4.352626 -12.401518  -1.121659  -5.905448  18.582694   0.003167   0.007665  -3.982500  -8.763531   5.750508  -2.354679  -0.003065   0.000852  20.637207   1.612839  -4.852851   8.359213   0.000255  -0.000468 -15.516881  -1.309929   6.234711  -1.026808   0.000161   0.000098
 -1.494312   0.898475   5.359308 -101.881300  76.591052 104.443231  10.102006  -3.567340  -2.188080   4.516064  -2.901736  -0.386691   2.427169   1.396030  -0.183412   3.056209   0.777200   5.072911  14.247952  12.552701  57.260780  -0.000716  15.865647  -0.000097   6.560318   2.815044   0.148247  -0.564381  -7.792035  -3.835454  -3.143934 -18.422021 -46.527159  -0.002072 -25.826896   0.005558   4.846463  -2.784639   4.375111 -12.545618  -1.170417  -5.941253  17.131619   0.003145   0.008054  -3.805305  -8.684720   5.940798  -2.303633  -0.002646   0.000710  20.966183   1.712326  -4.899949   8.307296   0.000229  -0.000411 -15.745585  -1.335101   6.057967  -1.125874   0.000037   0.000056
 -1.488593   0.897613   5.359645 -101.613938  76.712291 104.256049   9.979286  -3.594668  -2.195551   4.572023  -2.933737  -0.353593   2.456428   1.507624  -0.260410   3.072167   0.773882   5.132124  14.257001  12.593679  57.211989  -0.000705  15.773613  -0.000099   6.534455   2.807621   0.204607  -0.642474  -7.986226  -3.771035  -3.440228 -18.819461 -46.559527  -0.001735 -26.232321   0.005960   4.867233  -2.824090   4.378495 -12.675491  -1.216480  -5.973159  15.770499   0.003084   0.008167  -3.640126  -8.610253   6.118134  -2.253425  -0.002296   0.000593  21.286683   1.802858  -4.946495   8.278222   0.000198  -0.000349 -15.943085  -1.363006   5.895000  -1.317353  -0.000124   0.000023
 -1.482807   0.896756   5.360017 -101.336945  76.837180 104.058366   9.856701  -3.622656  -2.199748   4.618110  -2.967551  -0.322639   2.483850   1.612128  -0.331848   3.085683   0.772181   5.183274  14.264919  12.631952  57.163113  -0.000680  15.687789  -0.000107   6.509990   2.796729   0.254026  -0.719827  -8.174784  -3.714285  -3.723276 -19.196288 -46.596101  -0.001422 -26.614528   0.006163   4.889132  -2.889153   4.376419 -12.799434  -1.259053  -5.997275  14.501923   0.003014   0.008112  -3.486373  -8.539977   6.283308  -2.208684  -0.001987   0.000493  21.598411   1.884404  -4.990312   8.262486   0.000167  -0.000288 -16.117753  -1.392409   5.744377  -1.577349  -0.000278   0.000022
 -1.476956   0.895896   5.360430 -101.056690  76.967482 103.856161   9.733989  -3.652337  -2.201829   4.654480  -3.002923  -0.293316   2.508725   1.709639  -0.398144   3.097289   0.771130   5.228216  14.271847  12.667679  57.115334  -0.000645  15.607987  -0.000118   6.486560   2.786965   0.296671  -0.794364  -8.355291  -3.663097  -3.991385 -19.551299 -46.634474  -0.001136 -26.973257   0.006211   4.911132  -2.965093   4.372141 -12.917625  -1.298747  -6.014408  13.320281   0.002935   0.007928  -3.343184  -8.473721   6.437193  -2.168841  -0.001715   0.000409  21.901524   1.960027  -5.031097   8.256900   0.000137  -0.000233 -16.274388  -1.420209   5.604457  -1.892986  -0.000406   0.000043
 -1.471041   0.895025   5.360888 -100.786233  77.104068 103.662627   9.611271  -3.683807  -2.202484   4.682142  -3.039586  -0.265283   2.531057   1.800510  -0.459756   3.107687   0.770048   5.268337  14.278202  12.700875  57.069379  -0.000607  15.533716  -0.000128   6.464023   2.778874   0.333870  -0.865328  -8.526888  -3.616274  -4.244354 -19.884807 -46.673456  -0.000881 -27.309340   0.006139   4.932855  -3.045732   4.366655 -13.029390  -1.335863  -6.026416  12.219758   0.002841   0.007631  -3.209803  -8.411322   6.580575  -2.133306  -0.001476   0.000338  22.195674   2.031819  -5.068705   8.259631   0.000108  -0.000185 -16.416332  -1.444773   5.474255  -2.254747  -0.000499   0.000065
 -1.465067   0.894140   5.361392 -100.531101  77.247923 103.483490   9.488980  -3.716135  -2.202139   4.702201  -3.076713  -0.238370   2.550997   1.885188  -0.517090   3.117299   0.768674   5.304580  14.284224  12.731647  57.025639  -0.000568  15.464519  -0.000136   6.442329   2.772158   0.366939  -0.932345  -8.689148  -3.573021  -4.482401 -20.197510 -46.712306  -0.000655 -27.623878   0.005975   4.954109  -3.128068   4.360539 -13.134402  -1.370476  -6.034622  11.194957   0.002733   0.007250  -3.085526  -8.352589   6.714182  -2.101517  -0.001269   0.000278  22.480376   2.099530  -5.102876   8.268957   0.000081  -0.000143 -16.545935  -1.467058   5.353237  -2.654833  -0.000553   0.000088
 -1.458924   0.893328   5.361943 -100.590556  77.271835 103.559773   9.416711  -3.805260  -2.148042   4.803235  -3.115979  -0.183659   2.607410   1.950473  -0.535151   3.086955   0.755318   5.360531  14.267032  12.736858  56.921750  -0.000576  15.305826  -0.000222   6.435514   2.786066   0.442595  -1.000612  -8.881078  -3.558403  -4.655763 -20.571733 -46.733574  -0.000150 -28.030610   0.006572   4.997926  -3.108149   4.394353 -13.152479  -1.357943  -6.010204  10.481996   0.002353   0.005680  -2.971294  -8.238809   6.798217  -2.111576  -0.000996   0.000207  22.834420   2.109973  -5.039883   8.347275   0.000009  -0.000067 -16.675000  -1.496686   5.173713  -3.123683  -0.000812   0.000113
 -1.452662   0.892557   5.362539 -100.765355  77.280230 103.737512   9.340828  -3.900933  -2.083819   4.909057  -3.165531  -0.122607   2.667880   2.011407  -0.546001   3.059961   0.740929   5.406597  14.254487  12.737913  56.814334  -0.000560  15.153385  -0.000284   6.429049   2.767914   0.501483  -1.067168  -9.073567  -3.561171  -4.826584 -20.934030 -46.772197   0.000316 -28.419175   0.006898   5.046891  -3.136497   4.399378 -13.151242  -1.340844  -5.987575   9.868298   0.001975   0.004259  -2.861682  -8.130951   6.876622  -2.114665  -0.000791   0.000160  23.188209   2.114773  -4.952432   8.452140  -0.000068   0.000025 -16.781530  -1.529142   5.008088  -3.661306  -0.000989   0.000097
